<?xml version="1.0"?>
<svg xmlns="http://www.w3.org/2000/svg" xmlns:xlink="http://www.w3.org/1999/xlink" xmlns:svgjs="http://svgjs.com/svgjs" version="1.1" width="512" height="512" x="0" y="0" viewBox="0 0 510 510" style="enable-background:new 0 0 512 512" xml:space="preserve" class=""><g><g xmlns="http://www.w3.org/2000/svg" id="XMLID_2298_"><path id="XMLID_2301_" d="m510 90v-90h-90v30h-330v-30h-90v90h30v330h-30v90h90v-30h330v30h90v-90h-30v-330zm-60 330h-30v30h-330v-30h-30v-330h30v-30h330v30h30z" fill="#ffffff" data-original="#000000" style="" class=""/><path id="XMLID_2302_" d="m116.36 176.361h150.001v30h-150.001z" transform="matrix(.707 -.707 .707 .707 -79.264 191.36)" fill="#ffffff" data-original="#000000" style="" class=""/><path id="XMLID_2303_" d="m243.639 303.64h150.001v30h-150.001z" transform="matrix(.707 -.707 .707 .707 -131.985 318.64)" fill="#ffffff" data-original="#000000" style="" class=""/><path id="XMLID_2304_" d="m135 240h240v30h-240z" transform="matrix(.707 -.707 .707 .707 -105.624 255)" fill="#ffffff" data-original="#000000" style="" class=""/></g></g></svg>
