<?xml version="1.0"?>
<svg xmlns="http://www.w3.org/2000/svg" xmlns:xlink="http://www.w3.org/1999/xlink" xmlns:svgjs="http://svgjs.com/svgjs" version="1.1" width="512" height="512" x="0" y="0" viewBox="0 0 512 512" style="enable-background:new 0 0 512 512" xml:space="preserve" class=""><g><g xmlns="http://www.w3.org/2000/svg"><path d="m162.8 292.4v-19.267h-98.533v-177.8c0-8.284-6.716-15-15-15h-34.267c-8.284 0-15 6.716-15 15v321.333c0 8.284 6.716 15 15 15h34.267c8.284 0 15-6.716 15-15v-79.266h143.533c-24.814 0-45-20.187-45-45z" fill="#ffffff" data-original="#000000" style="" class=""/><path d="m447.733 337.4v79.267c0 8.284 6.716 15 15 15h34.267c8.284 0 15-6.716 15-15v-81.847c-4.695 1.665-9.741 2.58-15 2.58z" fill="#ffffff" data-original="#000000" style="" class=""/><path d="m448.799 160.667h-192.799c-34.849 0-63.201 28.351-63.201 63.2v68.533c0 8.284 6.716 15 15 15h289.201c8.284 0 15-6.716 15-15v-68.533c0-34.849-28.352-63.2-63.201-63.2z" fill="#ffffff" data-original="#000000" style="" class=""/><path d="m162.8 223.867c0-27.166-22.101-49.266-49.267-49.266-6.833 0-13.345 1.401-19.267 3.927v64.606h64.606c2.527-5.922 3.928-12.434 3.928-19.267z" fill="#ffffff" data-original="#000000" style="" class=""/></g></g></svg>
