<svg id="Capa_1" data-name="Capa 1" xmlns="http://www.w3.org/2000/svg" viewBox="0 0 30 30"><defs><style>.cls-1{fill:#5100f9;}</style></defs><title>isologo_cognitive</title><path class="cls-1" d="M4.19,18.72l.39.28A26.42,26.42,0,0,1,11,25.39l.3.42a4.59,4.59,0,0,0,3.6,2H15a4.57,4.57,0,0,0,3.72-2l.28-.39A26.42,26.42,0,0,1,25.39,19l.42-.3a4.6,4.6,0,0,0,2-3.61v-.22a4.6,4.6,0,0,0-2-3.61l-.4-.28A26.64,26.64,0,0,1,19,4.6l-.29-.41h0a4.6,4.6,0,0,0-3.61-1.95h-.22a4.6,4.6,0,0,0-3.61,2l-.3.42A26.42,26.42,0,0,1,4.58,11l-.39.28a4.6,4.6,0,0,0-1.95,3.61V15A4.57,4.57,0,0,0,4.19,18.72ZM9.86,9.91a.12.12,0,0,0,.05-.05,1.34,1.34,0,0,1,1.14-.33l.36.06a21.17,21.17,0,0,0,7.19,0L19,9.53a1.34,1.34,0,0,1,1.14.33l.05.05a1.34,1.34,0,0,1,.33,1.14l-.06.37a21.17,21.17,0,0,0,0,7.19l.06.33a1.34,1.34,0,0,1-.36,1.17l0,0a1.34,1.34,0,0,1-1.14.33l-.37-.06a21.17,21.17,0,0,0-7.19,0l-.33.06a1.34,1.34,0,0,1-1.17-.36l0,0A1.31,1.31,0,0,1,9.53,19l.06-.34a21.17,21.17,0,0,0,0-7.19l-.06-.37A1.34,1.34,0,0,1,9.86,9.91ZM17.13,24.1l-.27.39a2.31,2.31,0,0,1-1.86,1h-.06a2.28,2.28,0,0,1-1.79-1l-.3-.42c-.34-.48-.7-.95-1.06-1.41a18.84,18.84,0,0,1,6.4,0h0Q17.66,23.37,17.13,24.1Zm7.36-11a2.28,2.28,0,0,1,1,1.79v.12a2.28,2.28,0,0,1-1,1.79l-.42.3c-.48.34-.95.7-1.41,1.06a18.84,18.84,0,0,1,0-6.4v0c.47.37.94.73,1.43,1.07ZM12.85,5.93l.3-.42a2.28,2.28,0,0,1,1.79-1h.12a2.28,2.28,0,0,1,1.79,1h0l.3.41c.34.49.69,1,1.06,1.42h0a18.65,18.65,0,0,1-6.41,0h0C12.15,6.88,12.51,6.41,12.85,5.93Zm-8.32,9a2.28,2.28,0,0,1,1-1.79l.39-.28q.73-.53,1.44-1.08v0a18.84,18.84,0,0,1,0,6.4q-.7-.55-1.44-1.08l-.39-.27a2.31,2.31,0,0,1-1-1.86Z"/></svg>